<svg xmlns="http://www.w3.org/2000/svg" width="128.117" height="137.692" viewBox="0 0 128.117 137.692">
  <g id="business_administration" transform="translate(-31 12.586)">
    <g id="Group_302" data-name="Group 302" transform="translate(44.166 -12.586)">
      <path id="Path_338" data-name="Path 338" d="M130.47,60.794a10.481,10.481,0,0,0,10.47-10.47V42.47a10.47,10.47,0,0,0-20.941,0v7.853A10.481,10.481,0,0,0,130.47,60.794Zm0,0" transform="translate(-80.736 -25.189)" fill="#00394a"/>
      <path id="Path_339" data-name="Path 339" d="M94.234,89.032l-35.49,11.829a15.6,15.6,0,0,1-3.6,1.879l2.55,25.514-7.96,7.963-7.963-7.963,2.55-25.514a15.753,15.753,0,0,1-3.6-1.879L2.482,88.113A1.929,1.929,0,0,0,0,89.9v.832a1.9,1.9,0,0,0,.9,1.607l33.132,20.386v87.845H44.5V151.736c0-3.382,1.914-6.041,5.235-6.086,5.658.156,5.74,6.249,5.74,6.249l.5,48.675h9.489s.49-26.053-.023-62V112.729L94.234,95.01s5.161-2.756,4.76-5.091S94.234,89.032,94.234,89.032Z" transform="translate(0 -62.882)" fill="#00394a"/>
      <path id="Path_340" data-name="Path 340" d="M0,0H5.235V5.235H0ZM0,0" transform="translate(86.325) rotate(43)" fill="#00394a"/>
      <path id="Path_341" data-name="Path 341" d="M0,0H5.235V5.235H0ZM0,0" transform="translate(78.926 0.258) rotate(43)" fill="#00394a"/>
      <path id="Path_342" data-name="Path 342" d="M0,0H5.235V5.235H0ZM0,0" transform="translate(79.185 7.658) rotate(43)" fill="#00394a"/>
      <path id="Path_343" data-name="Path 343" d="M0,0H5.235V5.235H0ZM0,0" transform="translate(86.584 7.399) rotate(43)" fill="#00394a"/>
      <path id="Path_344" data-name="Path 344" d="M146.6,135.961l-2.261,22.6,2.508,2.508,2.508-2.508-2.261-22.6c-.082,0-.162.013-.247.013S146.679,135.964,146.6,135.961Zm0,0" transform="translate(-97.109 -95.072)" fill="#00394a"/>
    </g>
    <g id="Group_303" data-name="Group 303" transform="translate(107.755 56.412)">
      <path id="Path_338-2" data-name="Path 338" d="M125.858,48.109a5.864,5.864,0,0,0,5.858-5.858V37.858a5.858,5.858,0,0,0-11.716,0v4.393A5.864,5.864,0,0,0,125.858,48.109Zm0,0" transform="translate(-102.067 -32)" fill="#00394a"/>
      <path id="Path_339-2" data-name="Path 339" d="M65.609,89.6,45.753,96.215a8.728,8.728,0,0,1-2.014,1.051,8.194,8.194,0,0,1-2.825.549,12.523,12.523,0,0,1-3.231-.549,8.814,8.814,0,0,1-2.014-1.051l-17.36-5.423a1.079,1.079,0,0,0-1.389,1v.466a1.061,1.061,0,0,0,.5.9l14.5,9.7v44.617h5.858V124.678c0-1.892,1.071-3.379,2.929-3.405,3.165.087,3.211,3.5,3.211,3.5l.28,22.7h5.309s.091-10.046-.2-44.617l16.292-9.913S68.5,91.4,68.272,90.093,65.609,89.6,65.609,89.6Z" transform="translate(-16.922 -78.777)" fill="#00394a"/>
    </g>
    <g id="Group_304" data-name="Group 304" transform="translate(31 56.412)">
      <path id="Path_338-3" data-name="Path 338" d="M125.858,48.109a5.864,5.864,0,0,0,5.858-5.858V37.858a5.858,5.858,0,0,0-11.716,0v4.393A5.864,5.864,0,0,0,125.858,48.109Zm0,0" transform="translate(-100.788 -32)" fill="#00394a"/>
      <path id="Path_339-3" data-name="Path 339" d="M58.561,93.49l-16.9,5.516a8.729,8.729,0,0,1-2.014,1.051,8.194,8.194,0,0,1-2.825.549,12.523,12.523,0,0,1-3.231-.549,8.814,8.814,0,0,1-2.014-1.051l-18.64-5.943a1.079,1.079,0,0,0-1.389,1v.466a1.061,1.061,0,0,0,.5.9l15.782,10.216s-.127-.1.469,3.2a68.342,68.342,0,0,0,1.915,7.372,35.927,35.927,0,0,0-4.637,10.792,123.568,123.568,0,0,0-2.754,16.822l5.007-.048v6.478H33.7v-6.343l6.14.091.28,6.252h5.309l.011-6.18,4.765-.146a114.128,114.128,0,0,0-2.432-16.462,39.119,39.119,0,0,0-4.587-11.136s1.185-4.249,1.7-7.578.35-3.115.35-3.115l13.332-8.811s2.155-1.164,1.931-2.47S58.561,93.49,58.561,93.49Z" transform="translate(-11.555 -81.568)" fill="#00394a"/>
    </g>
  </g>
</svg>
