<svg xmlns="http://www.w3.org/2000/svg" width="110.554" height="137.216" viewBox="0 0 110.554 137.216">
  <g id="child_rearing" transform="translate(-35.28 8.431)">
    <path id="Path_338" data-name="Path 338" d="M131.35,63.212a11.361,11.361,0,0,0,11.35-11.35V43.35a11.35,11.35,0,0,0-22.7,0v8.512A11.361,11.361,0,0,0,131.35,63.212Zm0,0" transform="translate(-66.862 -36.395)" fill="#00394a"/>
    <path id="Path_339" data-name="Path 339" d="M129.149,131.537c-6.5-6-22.374-14.131-27.859-15.215a24.646,24.646,0,0,0-10.115.162,16.912,16.912,0,0,1-3.9,2.037,15.875,15.875,0,0,1-5.473,1.064,24.263,24.263,0,0,1-6.259-1.064,17.077,17.077,0,0,1-3.9-2.037s-8.731-1.73-13.029,4.126-6.02,23.617-6.246,33.711-.889,15.7,3.9,16.223,5.388-6.852,5.388-6.852l2.729-29.079v81.18h11.35V171.631c0-3.666,2.075-6.548,5.675-6.6,6.133.169,6.222,6.773,6.222,6.773l.542,43.986H98.459s.176-19.465-.38-86.445c0,0,.623-2.737,8.867-.15s20.967,12.094,20.967,12.094,3.406,1.3,4.99,0S135.649,137.54,129.149,131.537Z" transform="translate(-16.922 -87.094)" fill="#00394a"/>
    <path id="Path_350" data-name="Path 350" d="M129.552,58.267a9.561,9.561,0,0,0,9.552-9.552V41.552a9.552,9.552,0,1,0-19.1,0v7.164A9.561,9.561,0,0,0,129.552,58.267Zm0,0" transform="translate(-27.443 -3.214)" fill="#00394a"/>
    <path id="Path_351" data-name="Path 351" d="M85.965,51.877,53.589,62.668a14.232,14.232,0,0,1-3.283,1.714A14.537,14.537,0,0,1,45,65.767a9.3,9.3,0,0,1-4.564-1.385,14.371,14.371,0,0,1-3.283-1.714L2.264,51.039A1.76,1.76,0,0,0,0,52.672v.759A1.73,1.73,0,0,0,.819,54.9l30.224,18.6L24.31,134.235h9.552s5.109-21.165,6.218-24.641,3.025-6.11,6.11-6.11c1.741,0,3.864,3.366,4.933,4.739L67.4,134.235l8.725-4.266L59.7,97.073V73.494L83.519,60.648s5.708-3.158,5.575-6.329A2.377,2.377,0,0,0,85.965,51.877Z" transform="translate(56.738 -5.449)" fill="#00394a"/>
    <g id="Group_316" data-name="Group 316" transform="translate(124.645 12.63)">
      <path id="Path_340" data-name="Path 340" d="M0,0H6.225V6.225H0ZM0,0" transform="translate(13.043 0) rotate(43)" fill="#00394a"/>
      <path id="Path_341" data-name="Path 341" d="M0,0H6.225V6.225H0ZM0,0" transform="translate(4.245 0.307) rotate(43)" fill="#00394a"/>
      <path id="Path_342" data-name="Path 342" d="M0,0H6.225V6.225H0ZM0,0" transform="translate(4.552 9.106) rotate(43)" fill="#00394a"/>
      <path id="Path_343" data-name="Path 343" d="M0,0H6.225V6.225H0ZM0,0" transform="translate(13.35 8.798) rotate(43)" fill="#00394a"/>
    </g>
    <g id="Group_317" data-name="Group 317" transform="translate(93.533 -8.431)">
      <path id="Path_340-2" data-name="Path 340" d="M0,0H6.225V6.225H0ZM0,0" transform="translate(13.043 0) rotate(43)" fill="#00394a"/>
      <path id="Path_341-2" data-name="Path 341" d="M0,0H6.225V6.225H0ZM0,0" transform="translate(4.245 0.307) rotate(43)" fill="#00394a"/>
      <path id="Path_342-2" data-name="Path 342" d="M0,0H6.225V6.225H0ZM0,0" transform="translate(4.552 9.106) rotate(43)" fill="#00394a"/>
      <path id="Path_343-2" data-name="Path 343" d="M0,0H6.225V6.225H0ZM0,0" transform="translate(13.35 8.798) rotate(43)" fill="#00394a"/>
    </g>
  </g>
</svg>
