<svg id="human_development" xmlns="http://www.w3.org/2000/svg" width="125.146" height="127.587" viewBox="0 0 125.146 127.587">
  <path id="Path_322" data-name="Path 322" d="M131.124,62.591a11.135,11.135,0,0,0,11.124-11.124V43.124a11.124,11.124,0,0,0-22.248,0v8.343A11.135,11.135,0,0,0,131.124,62.591Zm0,0" transform="translate(-78.285 -20.876)" fill="#00394a"/>
  <path id="Path_325" data-name="Path 325" d="M125.146,5.562H114.022V0H91.774V5.562H80.65v8.343a8.354,8.354,0,0,0,8.343,8.343h4.328a11.1,11.1,0,0,0,6.8,5.167v4.256L62.412,44.238a16.575,16.575,0,0,1-3.824,2A16.93,16.93,0,0,1,52.4,47.847a10.83,10.83,0,0,1-5.316-1.613,16.737,16.737,0,0,1-3.824-2L2.637,30.695A2.049,2.049,0,0,0,0,32.6v.884a2.015,2.015,0,0,0,.953,1.707l35.2,21.659-7.842,70.74H39.436s5.95-24.649,7.241-28.7,3.523-7.116,7.116-7.116c2.027,0,4.5,3.92,5.746,5.519L78.5,127.587l10.161-4.969L69.526,84.307V56.847l30.591-18.825v9.256H94.555V52.84h16.686V47.278h-5.562V27.415a11.106,11.106,0,0,0,6.8-5.167H116.8a8.354,8.354,0,0,0,8.343-8.343ZM88.993,16.686a2.786,2.786,0,0,1-2.781-2.781V11.124h5.562v5.562Zm30.591-2.781a2.786,2.786,0,0,1-2.781,2.781h-2.781V11.124h5.562Zm0,0" transform="translate(0)" fill="#00394a"/>
  <path id="Path_326" data-name="Path 326" d="M0,0H5.562V5.562H0ZM0,0" transform="translate(102.973 71.713) rotate(45)" fill="#00394a"/>
  <path id="Path_327" data-name="Path 327" d="M0,0H5.562V5.562H0ZM0,0" transform="translate(95.107 71.713) rotate(45)" fill="#00394a"/>
  <path id="Path_328" data-name="Path 328" d="M0,0H5.562V5.562H0ZM0,0" transform="translate(95.107 79.579) rotate(45)" fill="#00394a"/>
  <path id="Path_329" data-name="Path 329" d="M0,0H5.562V5.562H0ZM0,0" transform="translate(102.973 79.579) rotate(45)" fill="#00394a"/>
  <path id="Path_330" data-name="Path 330" d="M0,0H5.562V5.562H0ZM0,0" transform="matrix(0.719, 0.695, -0.695, 0.719, 12.138, 64.373)" fill="#00394a"/>
  <path id="Path_331" data-name="Path 331" d="M0,0H5.562V5.562H0ZM0,0" transform="matrix(0.719, 0.695, -0.695, 0.719, 4.273, 64.511)" fill="#00394a"/>
  <path id="Path_332" data-name="Path 332" d="M0,0H5.562V5.562H0ZM0,0" transform="matrix(0.719, 0.695, -0.695, 0.719, 4.411, 72.375)" fill="#00394a"/>
  <path id="Path_333" data-name="Path 333" d="M0,0H5.562V5.562H0ZM0,0" transform="matrix(0.719, 0.695, -0.695, 0.719, 12.275, 72.238)" fill="#00394a"/>
  <path id="Path_334" data-name="Path 334" d="M0,0H5.562V5.562H0ZM0,0" transform="translate(23.123 0.345) rotate(43)" fill="#00394a"/>
  <path id="Path_335" data-name="Path 335" d="M0,0H5.562V5.562H0ZM0,0" transform="translate(15.262 0.619) rotate(43)" fill="#00394a"/>
  <path id="Path_336" data-name="Path 336" d="M0,0H5.562V5.562H0ZM0,0" transform="translate(15.537 8.48) rotate(43)" fill="#00394a"/>
  <path id="Path_337" data-name="Path 337" d="M0,0H5.562V5.562H0ZM0,0" transform="translate(23.398 8.206) rotate(43)" fill="#00394a"/>
</svg>
