<svg xmlns="http://www.w3.org/2000/svg" width="108.04" height="119.954" viewBox="0 0 108.04 119.954">
  <g id="Novels" transform="translate(-17.6 9.267)">
    <path id="Path_347" data-name="Path 347" d="M33.664,26.347S6.5,16.536,7.034,15.172a34.862,34.862,0,0,1,2.617-5.027C15.015,1.033,20.1-.352,23.256-.015c9.153.975,7.652,3.9,15.158,3.9s11.167-3.9,14.866-3.9c5.754,0,9.8,4.913,12.951,10.16a45.258,45.258,0,0,1,2.892,4.672c.487,1-26.852,11.531-26.852,11.531L38.016,28.9Z" transform="translate(34.396 39.28)" fill="#00394a"/>
    <path id="Path_338" data-name="Path 338" d="M134.393,71.581a14.408,14.408,0,0,0,14.393-14.393V46.393a14.393,14.393,0,0,0-28.787,0V57.188A14.408,14.408,0,0,0,134.393,71.581Zm0,0" transform="translate(-61.881 -34.374)" fill="#00394a"/>
    <g id="Group_312" data-name="Group 312" transform="translate(18.904 45.73)">
      <path id="Path_348" data-name="Path 348" d="M6.1,2.938s4.023-5.28,20-1.682S60.313,4.621,60.313,4.621c.075-.281,1.272,2.357.712,4.848s-.5,3.611-2.954,5.117c-.371.255.264,1.275.264,1.275L39.359,15.8s-1.756,6-4.791,6.264c-1.485,0-3.985-1.351-5.882-3.056a11.555,11.555,0,0,1-2.678-3.452l-.163,2.468-5.036-1.542-3.021-.827-4.97.06a3.277,3.277,0,0,0-1.115-.469.842.842,0,0,0-.716.3l-3.358.006A7.629,7.629,0,0,1,0,7.924C0,3.711,1.89,2.938,6.1,2.938Z" transform="translate(42.726 30.587) rotate(-30)" fill="#00394a"/>
      <path id="Path_349" data-name="Path 349" d="M6.1,19.126s4.023,5.28,20,1.682,34.211-3.366,34.211-3.366c.075.281,1.272-2.357.712-4.848s-.5-3.611-2.954-5.117c-.371-.255.264-1.274.264-1.274l-18.975.061S37.6.265,34.568,0c-1.485,0-3.985,1.351-5.882,3.056a11.555,11.555,0,0,0-2.678,3.452L25.845,4.04,20.809,5.582l-3.021.827-4.97-.06a3.277,3.277,0,0,1-1.115.469.842.842,0,0,1-.716-.3L7.63,6.51A7.63,7.63,0,0,0,0,14.14C0,18.353,1.89,19.126,6.1,19.126Z" transform="translate(52.978 49.695) rotate(-150)" fill="#00394a"/>
    </g>
    <g id="Group_313" data-name="Group 313" transform="translate(98.679 -9.267)">
      <path id="Path_340" data-name="Path 340" d="M0,0H7.2V7.2H0ZM0,0" transform="translate(15.079 0) rotate(43)" fill="#00394a"/>
      <path id="Path_341" data-name="Path 341" d="M0,0H7.2V7.2H0ZM0,0" transform="translate(4.908 0.355) rotate(43)" fill="#00394a"/>
      <path id="Path_342" data-name="Path 342" d="M0,0H7.2V7.2H0ZM0,0" transform="translate(5.262 10.527) rotate(43)" fill="#00394a"/>
      <path id="Path_343" data-name="Path 343" d="M0,0H7.2V7.2H0ZM0,0" transform="translate(15.434 10.171) rotate(43)" fill="#00394a"/>
    </g>
    <g id="Group_314" data-name="Group 314" transform="translate(17.6 13.049)">
      <path id="Path_340-2" data-name="Path 340" d="M0,0H7.2V7.2H0ZM0,0" transform="translate(15.079 0) rotate(43)" fill="#00394a"/>
      <path id="Path_341-2" data-name="Path 341" d="M0,0H7.2V7.2H0ZM0,0" transform="translate(4.908 0.355) rotate(43)" fill="#00394a"/>
      <path id="Path_342-2" data-name="Path 342" d="M0,0H7.2V7.2H0ZM0,0" transform="translate(5.262 10.527) rotate(43)" fill="#00394a"/>
      <path id="Path_343-2" data-name="Path 343" d="M0,0H7.2V7.2H0ZM0,0" transform="translate(15.434 10.171) rotate(43)" fill="#00394a"/>
    </g>
    <path id="Path_352" data-name="Path 352" d="M0,0A19.952,19.952,0,0,1,7.415,1.922C10.922,3.447,15.772,8,20.6,8c4.643,0,9.266-4.436,13.208-6.127A21.944,21.944,0,0,1,41,0V30H26.581s.092-11.422-6.544-11.406S13.648,30,13.648,30H0Z" transform="translate(51.6 80.688)" fill="#00394a"/>
  </g>
</svg>
