<svg xmlns="http://www.w3.org/2000/svg" width="115.116" height="134.991" viewBox="0 0 115.116 134.991">
  <g id="political_science" transform="translate(-479.999 -139.826)">
    <g id="Group_306" data-name="Group 306" transform="translate(493.999 139.826)">
      <g id="Group_307" data-name="Group 307" transform="translate(85.568 1.348)">
        <path id="Path_340" data-name="Path 340" d="M0,0H5.406V5.406H0ZM0,0" transform="translate(11.327) rotate(43)" fill="#00394a"/>
        <path id="Path_341" data-name="Path 341" d="M0,0H5.406V5.406H0ZM0,0" transform="translate(3.687 0.267) rotate(43)" fill="#00394a"/>
        <path id="Path_342" data-name="Path 342" d="M0,0H5.406V5.406H0ZM0,0" transform="translate(3.953 7.907) rotate(43)" fill="#00394a"/>
        <path id="Path_343" data-name="Path 343" d="M0,0H5.406V5.406H0ZM0,0" transform="translate(11.594 7.641) rotate(43)" fill="#00394a"/>
      </g>
      <g id="Group_310" data-name="Group 310" transform="translate(18.998)">
        <path id="Path_338" data-name="Path 338" d="M130.812,61.733a10.823,10.823,0,0,0,10.812-10.812V42.812a10.812,10.812,0,0,0-21.624,0v8.109A10.823,10.823,0,0,0,130.812,61.733Zm0,0" transform="translate(-103.532 -32)" fill="#00394a"/>
        <path id="Path_339" data-name="Path 339" d="M158.281,122.13c-4.219.669-3.631,2-4.961,2.489l2.633,26.346c-1.482,3.107,18.9-2,18.9-2s-2.259-9.466-4.418-16.172S162.5,121.461,158.281,122.13Z" transform="translate(-120.452 -90.494)" fill="#00394a"/>
        <path id="Path_344" data-name="Path 344" d="M146.671,135.961,144.336,159.3l2.589,2.589,2.589-2.589-2.335-23.334c-.084,0-.168.013-.255.013S146.755,135.964,146.671,135.961Zm0,0" transform="translate(-119.644 -100.772)" fill="#00394a"/>
        <path id="Path_346" data-name="Path 346" d="M169.889,122.13c4.219.669,3.631,2,4.961,2.489l-2.633,26.346c1.481,3.107-18.9-2-18.9-2s2.259-9.466,4.418-16.172S165.67,121.461,169.889,122.13Z" transform="translate(-153.319 -90.494)" fill="#00394a"/>
      </g>
      <g id="Group_308" data-name="Group 308" transform="translate(-14 19.918)">
        <path id="Path_340-2" data-name="Path 340" d="M0,0H5.406V5.406H0ZM0,0" transform="translate(11.327 0) rotate(43)" fill="#00394a"/>
        <path id="Path_341-2" data-name="Path 341" d="M0,0H5.406V5.406H0ZM0,0" transform="translate(3.687 0.267) rotate(43)" fill="#00394a"/>
        <path id="Path_342-2" data-name="Path 342" d="M0,0H5.406V5.406H0ZM0,0" transform="translate(3.953 7.907) rotate(43)" fill="#00394a"/>
        <path id="Path_343-2" data-name="Path 343" d="M0,0H5.406V5.406H0ZM0,0" transform="translate(11.594 7.641) rotate(43)" fill="#00394a"/>
      </g>
    </g>
    <path id="Path_345" data-name="Path 345" d="M7.8,0H83.194c4.307,0,7.8.149,7.8,4.457s-3.492,5.571-7.8,5.571L68.424,29.185,61.409,77.354H30.257L22.8,28.107,7.8,10.028C3.492,10.028,0,8.764,0,4.457S3.492,0,7.8,0Z" transform="translate(494.558 197.463)" fill="#00394a"/>
  </g>
</svg>
